<?xml version="1.0" encoding="utf-8"?><svg xmlns="http://www.w3.org/2000/svg" xmlns:xlink="http://www.w3.org/1999/xlink"><symbol fill="none" viewBox="0 0 12 8" id="arrow-black" xmlns="http://www.w3.org/2000/svg"><path d="M11.354 4.354a.5.5 0 000-.708L8.172.464a.5.5 0 10-.708.708L10.293 4 7.464 6.828a.5.5 0 10.708.708l3.182-3.182zM0 4.5h11v-1H0v1z" fill="currentColor"/></symbol><symbol viewBox="0 0 512 512" id="camera" xmlns="http://www.w3.org/2000/svg"><path fill="currentColor" d="M324.3 64c3.3 0 6.3 2.1 7.5 5.2l22.1 58.8H464c8.8 0 16 7.2 16 16v288c0 8.8-7.2 16-16 16H48c-8.8 0-16-7.2-16-16V144c0-8.8 7.2-16 16-16h110.2l20.1-53.6c2.3-6.2 8.3-10.4 15-10.4h131m0-32h-131c-20 0-37.9 12.4-44.9 31.1L136 96H48c-26.5 0-48 21.5-48 48v288c0 26.5 21.5 48 48 48h416c26.5 0 48-21.5 48-48V144c0-26.5-21.5-48-48-48h-88l-14.3-38c-5.8-15.7-20.7-26-37.4-26zM256 408c-66.2 0-120-53.8-120-120s53.8-120 120-120 120 53.8 120 120-53.8 120-120 120zm0-208c-48.5 0-88 39.5-88 88s39.5 88 88 88 88-39.5 88-88-39.5-88-88-88z"/></symbol><symbol class="csvg-inline--fa cfa-eye cfa-w-18" viewBox="0 0 576 512" id="eye" xmlns="http://www.w3.org/2000/svg"><path fill="currentColor" d="M288 144a110.94 110.94 0 00-31.24 5 55.4 55.4 0 017.24 27 56 56 0 01-56 56 55.4 55.4 0 01-27-7.24A111.71 111.71 0 10288 144zm284.52 97.4C518.29 135.59 410.93 64 288 64S57.68 135.64 3.48 241.41a32.35 32.35 0 000 29.19C57.71 376.41 165.07 448 288 448s230.32-71.64 284.52-177.41a32.35 32.35 0 000-29.19zM288 400c-98.65 0-189.09-55-237.93-144C98.91 167 189.34 112 288 112s189.09 55 237.93 144C477.1 345 386.66 400 288 400z"/></symbol><symbol class="dsvg-inline--fa dfa-facebook-f dfa-w-10" viewBox="0 0 320 512" id="facebook" xmlns="http://www.w3.org/2000/svg"><path fill="currentColor" d="M279.14 288l14.22-92.66h-88.91v-60.13c0-25.35 12.42-50.06 52.24-50.06h40.42V6.26S260.43 0 225.36 0c-73.22 0-121.08 44.38-121.08 124.72v70.62H22.89V288h81.39v224h100.17V288z"/></symbol><symbol viewBox="0 0 96 96" fill="#FFF" id="folder" xmlns="http://www.w3.org/2000/svg"><path fill="#FFB900" d="M45 24l-4.243-4.243A6 6 0 0036.515 18H9a3 3 0 00-3 3v56a1 1 0 001 1h82a1 1 0 001-1V27a3 3 0 00-3-3H45z"/><path fill="#FFD75E" d="M45 24l-4.243 4.243A6 6 0 0136.515 30H6v47a1 1 0 001 1h82a1 1 0 001-1V27a3 3 0 00-3-3H45z"/><path fill="#ffd75e" d="M45 24l-4.243 4.243A6 6 0 0136.515 30H6v47a1 1 0 001 1h82a1 1 0 001-1V27a3 3 0 00-3-3H45z"/><path opacity=".4" d="M6 30v1h30.6a7 7 0 004.95-2.05L46.5 24H45l-4.243 4.243A6 6 0 0136.515 30H6z"/><path fill="#DA7B16" d="M89 78H7a1 1 0 01-1-1h84a1 1 0 01-1 1z"/></symbol><symbol class="fsvg-inline--fa ffa-instagram ffa-w-14" viewBox="0 0 448 512" id="instagram" xmlns="http://www.w3.org/2000/svg"><path fill="currentColor" d="M224.1 141c-63.6 0-114.9 51.3-114.9 114.9s51.3 114.9 114.9 114.9S339 319.5 339 255.9 287.7 141 224.1 141zm0 189.6c-41.1 0-74.7-33.5-74.7-74.7s33.5-74.7 74.7-74.7 74.7 33.5 74.7 74.7-33.6 74.7-74.7 74.7zm146.4-194.3c0 14.9-12 26.8-26.8 26.8-14.9 0-26.8-12-26.8-26.8s12-26.8 26.8-26.8 26.8 12 26.8 26.8zm76.1 27.2c-1.7-35.9-9.9-67.7-36.2-93.9-26.2-26.2-58-34.4-93.9-36.2-37-2.1-147.9-2.1-184.9 0-35.8 1.7-67.6 9.9-93.9 36.1s-34.4 58-36.2 93.9c-2.1 37-2.1 147.9 0 184.9 1.7 35.9 9.9 67.7 36.2 93.9s58 34.4 93.9 36.2c37 2.1 147.9 2.1 184.9 0 35.9-1.7 67.7-9.9 93.9-36.2 26.2-26.2 34.4-58 36.2-93.9 2.1-37 2.1-147.8 0-184.8zM398.8 388c-7.8 19.6-22.9 34.7-42.6 42.6-29.5 11.7-99.5 9-132.1 9s-102.7 2.6-132.1-9c-19.6-7.8-34.7-22.9-42.6-42.6-11.7-29.5-9-99.5-9-132.1s-2.6-102.7 9-132.1c7.8-19.6 22.9-34.7 42.6-42.6 29.5-11.7 99.5-9 132.1-9s102.7-2.6 132.1 9c19.6 7.8 34.7 22.9 42.6 42.6 11.7 29.5 9 99.5 9 132.1s2.7 102.7-9 132.1z"/></symbol><symbol fill="noe" viewBox="0 0 24 29" id="music-note" xmlns="http://www.w3.org/2000/svg"><path d="M19.641.226a.77.77 0 00-.79-.184L6.078 4.504c-.389.136-.657.574-.657 1.073v15.1c-.532-.38-1.15-.6-1.808-.6C1.621 20.077 0 22.078 0 24.538 0 26.998 1.621 29 3.614 29c1.993 0 3.615-2.001 3.615-4.462V10.882l10.964-3.83v9.164a3.09 3.09 0 00-1.808-.6c-1.993 0-3.614 2-3.614 4.46 0 2.461 1.621 4.462 3.614 4.462 1.994 0 3.615-2.001 3.615-4.461V1.115c0-.35-.133-.678-.359-.89zM3.615 26.769c-.997 0-1.808-1-1.808-2.23s.811-2.231 1.808-2.231c.996 0 1.807 1 1.807 2.23S4.61 26.77 3.615 26.77zm12.77-4.461c-.996 0-1.807-1.001-1.807-2.231s.811-2.23 1.808-2.23c.996 0 1.807 1 1.807 2.23s-.81 2.23-1.807 2.23zm1.808-17.575L7.229 8.563V6.42l10.964-3.83v2.143z" fill="currentColor"/></symbol><symbol class="hsvg-inline--fa hfa-odnoklassniki hfa-w-10" viewBox="0 0 320 512" id="ok" xmlns="http://www.w3.org/2000/svg"><path fill="currentColor" d="M275.1 334c-27.4 17.4-65.1 24.3-90 26.9l20.9 20.6 76.3 76.3c27.9 28.6-17.5 73.3-45.7 45.7-19.1-19.4-47.1-47.4-76.3-76.6L84 503.4c-28.2 27.5-73.6-17.6-45.4-45.7 19.4-19.4 47.1-47.4 76.3-76.3l20.6-20.6c-24.6-2.6-62.9-9.1-90.6-26.9-32.6-21-46.9-33.3-34.3-59 7.4-14.6 27.7-26.9 54.6-5.7 0 0 36.3 28.9 94.9 28.9s94.9-28.9 94.9-28.9c26.9-21.1 47.1-8.9 54.6 5.7 12.4 25.7-1.9 38-34.5 59.1zM30.3 129.7C30.3 58 88.6 0 160 0s129.7 58 129.7 129.7c0 71.4-58.3 129.4-129.7 129.4s-129.7-58-129.7-129.4zm66 0c0 35.1 28.6 63.7 63.7 63.7s63.7-28.6 63.7-63.7c0-35.4-28.6-64-63.7-64s-63.7 28.6-63.7 64z"/></symbol><symbol fill="none" viewBox="0 0 26 26" id="popup-close" xmlns="http://www.w3.org/2000/svg"><path d="M25.276 23.26L2.648.633l-1.94 1.94L23.337 25.2l1.94-1.94z" fill="#272526"/><path d="M23.338.632L.711 23.26l1.94 1.94L25.278 2.572l-1.94-1.94z" fill="#272526"/></symbol><symbol fill="none" viewBox="0 0 16 15" id="search" xmlns="http://www.w3.org/2000/svg"><path d="M5 10.5l-4 4m14-8a5.5 5.5 0 11-11 0 5.5 5.5 0 0111 0z" stroke="currentColor" stroke-linecap="round" stroke-linejoin="round"/></symbol><symbol viewBox="0 0 11 19" id="slider-arrow" xmlns="http://www.w3.org/2000/svg"><path d="M.452 8.954a1.23 1.23 0 000 1.74L8.28 18.52a1.23 1.23 0 001.739-1.74L3.061 9.825l6.958-6.958a1.23 1.23 0 10-1.74-1.74L.453 8.955zm3.016-.36H1.322v2.46h2.146v-2.46z"/></symbol><symbol class="lsvg-inline--fa lfa-twitter lfa-w-16" viewBox="0 0 512 512" id="twitter" xmlns="http://www.w3.org/2000/svg"><path fill="currentColor" d="M459.37 151.716c.325 4.548.325 9.097.325 13.645 0 138.72-105.583 298.558-298.558 298.558-59.452 0-114.68-17.219-161.137-47.106 8.447.974 16.568 1.299 25.34 1.299 49.055 0 94.213-16.568 130.274-44.832-46.132-.975-84.792-31.188-98.112-72.772 6.498.974 12.995 1.624 19.818 1.624 9.421 0 18.843-1.3 27.614-3.573-48.081-9.747-84.143-51.98-84.143-102.985v-1.299c13.969 7.797 30.214 12.67 47.431 13.319-28.264-18.843-46.781-51.005-46.781-87.391 0-19.492 5.197-37.36 14.294-52.954 51.655 63.675 129.3 105.258 216.365 109.807-1.624-7.797-2.599-15.918-2.599-24.04 0-57.828 46.782-104.934 104.934-104.934 30.213 0 57.502 12.67 76.67 33.137 23.715-4.548 46.456-13.32 66.599-25.34-7.798 24.366-24.366 44.833-46.132 57.827 21.117-2.273 41.584-8.122 60.426-16.243-14.292 20.791-32.161 39.308-52.628 54.253z"/></symbol><symbol class="msvg-inline--fa mfa-vk mfa-w-18" viewBox="0 0 576 512" id="vk" xmlns="http://www.w3.org/2000/svg"><path fill="currentColor" d="M545 117.7c3.7-12.5 0-21.7-17.8-21.7h-58.9c-15 0-21.9 7.9-25.6 16.7 0 0-30 73.1-72.4 120.5-13.7 13.7-20 18.1-27.5 18.1-3.7 0-9.4-4.4-9.4-16.9V117.7c0-15-4.2-21.7-16.6-21.7h-92.6c-9.4 0-15 7-15 13.5 0 14.2 21.2 17.5 23.4 57.5v86.8c0 19-3.4 22.5-10.9 22.5-20 0-68.6-73.4-97.4-157.4-5.8-16.3-11.5-22.9-26.6-22.9H38.8c-16.8 0-20.2 7.9-20.2 16.7 0 15.6 20 93.1 93.1 195.5C160.4 378.1 229 416 291.4 416c37.5 0 42.1-8.4 42.1-22.9 0-66.8-3.4-73.1 15.4-73.1 8.7 0 23.7 4.4 58.7 38.1 40 40 46.6 57.9 69 57.9h58.9c16.8 0 25.3-8.4 20.4-25-11.2-34.9-86.9-106.7-90.3-111.5-8.7-11.2-6.2-16.2 0-26.2.1-.1 72-101.3 79.4-135.6z"/></symbol><symbol class="nsvg-inline--fa nfa-youtube nfa-w-18" viewBox="0 0 576 512" id="youtube" xmlns="http://www.w3.org/2000/svg"><path fill="currentColor" d="M549.655 124.083c-6.281-23.65-24.787-42.276-48.284-48.597C458.781 64 288 64 288 64S117.22 64 74.629 75.486c-23.497 6.322-42.003 24.947-48.284 48.597-11.412 42.867-11.412 132.305-11.412 132.305s0 89.438 11.412 132.305c6.281 23.65 24.787 41.5 48.284 47.821C117.22 448 288 448 288 448s170.78 0 213.371-11.486c23.497-6.321 42.003-24.171 48.284-47.821 11.412-42.867 11.412-132.305 11.412-132.305s0-89.438-11.412-132.305zm-317.51 213.508V175.185l142.739 81.205-142.739 81.201z"/></symbol></svg>