<svg width="24" height="29" viewBox="0 0 24 29" fill="noe" xmlns="http://www.w3.org/2000/svg">
  <path
    d="M19.6414 0.225743C19.4157 0.0150098 19.1228 -0.0530288 18.8503 0.0421507L6.07922 4.50369C5.69024 4.63962 5.42169 5.07789 5.42169 5.57691V20.6771C4.88958 20.2962 4.27259 20.0769 3.61446 20.0769C1.62145 20.0769 0 22.0784 0 24.5385C0 26.9986 1.62145 29 3.61446 29C5.60747 29 7.22892 26.9986 7.22892 24.5385C7.22892 24.4226 7.22892 10.882 7.22892 10.882L18.1928 7.05175V16.2156C17.6607 15.8347 17.0437 15.6154 16.3855 15.6154C14.3925 15.6154 12.7711 17.6168 12.7711 20.0769C12.7711 22.537 14.3925 24.5385 16.3855 24.5385C18.3786 24.5385 20 22.537 20 20.0769C20 19.9779 20 1.11537 20 1.11537C20.0001 0.765887 19.8673 0.436551 19.6414 0.225743ZM3.61452 26.7692C2.61801 26.7692 1.80729 25.7685 1.80729 24.5385C1.80729 23.3084 2.61801 22.3077 3.61452 22.3077C4.61102 22.3077 5.42175 23.3084 5.42175 24.5385C5.42175 25.7685 4.61102 26.7692 3.61452 26.7692ZM16.3856 22.3077C15.3891 22.3077 14.5784 21.307 14.5784 20.0769C14.5784 18.8469 15.3891 17.8461 16.3856 17.8461C17.3821 17.8461 18.1928 18.8469 18.1928 20.0769C18.1928 21.307 17.3821 22.3077 16.3856 22.3077ZM18.1928 4.73346L7.22898 8.56362V6.42044L18.1928 2.59029V4.73346Z"
    fill="currentColor"/>
</svg>
